<svg xmlns="http://www.w3.org/2000/svg" viewBox="0 0 1200 800">
  <!-- Fondo oscuro -->
  <rect width="1200" height="800" fill="#0d1117"/>
  
  <!-- Título -->
  <text x="600" y="40" font-family="Arial, sans-serif" font-size="28" font-weight="bold" fill="#58a6ff" text-anchor="middle">
    Java Collections Framework - Jerarquía
  </text>
  
  <!-- Iterable (raíz) -->
  <rect x="500" y="80" width="200" height="50" fill="#161b22" stroke="#58a6ff" stroke-width="2" rx="8"/>
  <text x="600" y="110" font-family="Arial, sans-serif" font-size="16" fill="#58a6ff" text-anchor="middle" font-style="italic">
    &lt;&lt;interface&gt;&gt; Iterable&lt;E&gt;
  </text>
  
  <!-- Flecha hacia abajo -->
  <line x1="600" y1="130" x2="600" y2="170" stroke="#30363d" stroke-width="2" marker-end="url(#arrowhead)"/>
  
  <!-- Collection (principal) -->
  <rect x="480" y="170" width="240" height="50" fill="#161b22" stroke="#3fb950" stroke-width="3" rx="8"/>
  <text x="600" y="200" font-family="Arial, sans-serif" font-size="18" fill="#3fb950" text-anchor="middle" font-style="italic" font-weight="bold">
    &lt;&lt;interface&gt;&gt; Collection&lt;E&gt;
  </text>
  
  <!-- Flechas desde Collection a List, Set, Queue -->
  <line x1="520" y1="220" x2="200" y2="280" stroke="#30363d" stroke-width="2" marker-end="url(#arrowhead)"/>
  <line x1="600" y1="220" x2="600" y2="280" stroke="#30363d" stroke-width="2" marker-end="url(#arrowhead)"/>
  <line x1="680" y1="220" x2="1000" y2="280" stroke="#30363d" stroke-width="2" marker-end="url(#arrowhead)"/>
  
  <!-- LIST -->
  <rect x="100" y="280" width="200" height="50" fill="#161b22" stroke="#79c0ff" stroke-width="2" rx="8"/>
  <text x="200" y="310" font-family="Arial, sans-serif" font-size="16" fill="#79c0ff" text-anchor="middle" font-style="italic">
    &lt;&lt;interface&gt;&gt; List&lt;E&gt;
  </text>
  
  <!-- Implementaciones de List -->
  <line x1="150" y1="330" x2="100" y2="380" stroke="#30363d" stroke-width="1" stroke-dasharray="5,5"/>
  <line x1="200" y1="330" x2="200" y2="380" stroke="#30363d" stroke-width="1" stroke-dasharray="5,5"/>
  <line x1="250" y1="330" x2="300" y2="380" stroke="#30363d" stroke-width="1" stroke-dasharray="5,5"/>
  
  <rect x="20" y="380" width="140" height="40" fill="#1f6feb" stroke="#79c0ff" stroke-width="1" rx="5"/>
  <text x="90" y="405" font-family="Arial, sans-serif" font-size="14" fill="#c9d1d9" text-anchor="middle">ArrayList</text>
  
  <rect x="180" y="380" width="140" height="40" fill="#1f6feb" stroke="#79c0ff" stroke-width="1" rx="5"/>
  <text x="250" y="405" font-family="Arial, sans-serif" font-size="14" fill="#c9d1d9" text-anchor="middle">LinkedList</text>
  
  <rect x="340" y="380" width="140" height="40" fill="#1f6feb" stroke="#79c0ff" stroke-width="1" rx="5"/>
  <text x="410" y="405" font-family="Arial, sans-serif" font-size="14" fill="#c9d1d9" text-anchor="middle">Vector</text>
  
  <!-- SET -->
  <rect x="500" y="280" width="200" height="50" fill="#161b22" stroke="#d29922" stroke-width="2" rx="8"/>
  <text x="600" y="310" font-family="Arial, sans-serif" font-size="16" fill="#d29922" text-anchor="middle" font-style="italic">
    &lt;&lt;interface&gt;&gt; Set&lt;E&gt;
  </text>
  
  <!-- SortedSet -->
  <line x1="600" y1="330" x2="600" y2="380" stroke="#30363d" stroke-width="2" marker-end="url(#arrowhead)"/>
  <rect x="510" y="380" width="180" height="40" fill="#161b22" stroke="#d29922" stroke-width="1" rx="5"/>
  <text x="600" y="405" font-family="Arial, sans-serif" font-size="14" fill="#d29922" text-anchor="middle" font-style="italic">SortedSet&lt;E&gt;</text>
  
  <!-- NavigableSet -->
  <line x1="600" y1="420" x2="600" y2="460" stroke="#30363d" stroke-width="1" stroke-dasharray="3,3" marker-end="url(#arrowhead)"/>
  <rect x="510" y="460" width="180" height="40" fill="#161b22" stroke="#d29922" stroke-width="1" rx="5"/>
  <text x="600" y="485" font-family="Arial, sans-serif" font-size="14" fill="#d29922" text-anchor="middle" font-style="italic">NavigableSet&lt;E&gt;</text>
  
  <!-- Implementaciones de Set -->
  <line x1="530" y1="330" x2="450" y2="540" stroke="#30363d" stroke-width="1" stroke-dasharray="5,5"/>
  <line x1="670" y1="330" x2="750" y2="540" stroke="#30363d" stroke-width="1" stroke-dasharray="5,5"/>
  <line x1="600" y1="500" x2="600" y2="540" stroke="#30363d" stroke-width="1" stroke-dasharray="5,5"/>
  
  <rect x="370" y="540" width="140" height="40" fill="#6e7681" stroke="#d29922" stroke-width="1" rx="5"/>
  <text x="440" y="565" font-family="Arial, sans-serif" font-size="14" fill="#c9d1d9" text-anchor="middle">HashSet</text>
  
  <rect x="530" y="540" width="140" height="40" fill="#6e7681" stroke="#d29922" stroke-width="1" rx="5"/>
  <text x="600" y="565" font-family="Arial, sans-serif" font-size="14" fill="#c9d1d9" text-anchor="middle">TreeSet</text>
  
  <rect x="690" y="540" width="160" height="40" fill="#6e7681" stroke="#d29922" stroke-width="1" rx="5"/>
  <text x="770" y="565" font-family="Arial, sans-serif" font-size="14" fill="#c9d1d9" text-anchor="middle">LinkedHashSet</text>
  
  <!-- QUEUE -->
  <rect x="900" y="280" width="200" height="50" fill="#161b22" stroke="#f85149" stroke-width="2" rx="8"/>
  <text x="1000" y="310" font-family="Arial, sans-serif" font-size="16" fill="#f85149" text-anchor="middle" font-style="italic">
    &lt;&lt;interface&gt;&gt; Queue&lt;E&gt;
  </text>
  
  <!-- Implementaciones de Queue -->
  <line x1="950" y1="330" x2="900" y2="380" stroke="#30363d" stroke-width="1" stroke-dasharray="5,5"/>
  <line x1="1000" y1="330" x2="1000" y2="380" stroke="#30363d" stroke-width="1" stroke-dasharray="5,5"/>
  <line x1="1050" y1="330" x2="1100" y2="380" stroke="#30363d" stroke-width="1" stroke-dasharray="5,5"/>
  
  <rect x="820" y="380" width="140" height="40" fill="#a40e26" stroke="#f85149" stroke-width="1" rx="5"/>
  <text x="890" y="405" font-family="Arial, sans-serif" font-size="14" fill="#c9d1d9" text-anchor="middle">PriorityQueue</text>
  
  <rect x="980" y="380" width="140" height="40" fill="#a40e26" stroke="#f85149" stroke-width="1" rx="5"/>
  <text x="1050" y="405" font-family="Arial, sans-serif" font-size="14" fill="#c9d1d9" text-anchor="middle">ArrayDeque</text>
  
  <!-- MAP (separado, no extiende Collection) -->
  <text x="950" y="100" font-family="Arial, sans-serif" font-size="14" fill="#8b949e" text-anchor="middle" font-style="italic">
    (No extiende Collection)
  </text>
  
  <rect x="850" y="120" width="200" height="50" fill="#161b22" stroke="#d2a8ff" stroke-width="3" rx="8"/>
  <text x="950" y="150" font-family="Arial, sans-serif" font-size="16" fill="#d2a8ff" text-anchor="middle" font-style="italic" font-weight="bold">
    &lt;&lt;interface&gt;&gt; Map&lt;K,V&gt;
  </text>
  
  <!-- SortedMap -->
  <line x1="950" y1="170" x2="950" y2="220" stroke="#30363d" stroke-width="2" marker-end="url(#arrowhead)"/>
  <rect x="860" y="220" width="180" height="40" fill="#161b22" stroke="#d2a8ff" stroke-width="1" rx="5"/>
  <text x="950" y="245" font-family="Arial, sans-serif" font-size="14" fill="#d2a8ff" text-anchor="middle" font-style="italic">SortedMap&lt;K,V&gt;</text>
  
  <!-- NavigableMap -->
  <line x1="950" y1="260" x2="950" y2="300" stroke="#30363d" stroke-width="1" stroke-dasharray="3,3" marker-end="url(#arrowhead)"/>
  <rect x="860" y="300" width="180" height="40" fill="#161b22" stroke="#d2a8ff" stroke-width="1" rx="5"/>
  <text x="950" y="325" font-family="Arial, sans-serif" font-size="14" fill="#d2a8ff" text-anchor="middle" font-style="italic">NavigableMap&lt;K,V&gt;</text>
  
  <!-- Implementaciones de Map -->
  <line x1="880" y1="170" x2="800" y2="380" stroke="#30363d" stroke-width="1" stroke-dasharray="5,5"/>
  <line x1="1020" y1="170" x2="1100" y2="380" stroke="#30363d" stroke-width="1" stroke-dasharray="5,5"/>
  <line x1="950" y1="340" x2="950" y2="380" stroke="#30363d" stroke-width="1" stroke-dasharray="5,5"/>
  
  <rect x="720" y="380" width="140" height="40" fill="#8250df" stroke="#d2a8ff" stroke-width="1" rx="5"/>
  <text x="790" y="405" font-family="Arial, sans-serif" font-size="14" fill="#c9d1d9" text-anchor="middle">HashMap</text>
  
  <rect x="880" y="380" width="140" height="40" fill="#8250df" stroke="#d2a8ff" stroke-width="1" rx="5"/>
  <text x="950" y="405" font-family="Arial, sans-serif" font-size="14" fill="#c9d1d9" text-anchor="middle">TreeMap</text>
  
  <rect x="1040" y="380" width="160" height="40" fill="#8250df" stroke="#d2a8ff" stroke-width="1" rx="5"/>
  <text x="1120" y="405" font-family="Arial, sans-serif" font-size="14" fill="#c9d1d9" text-anchor="middle">LinkedHashMap</text>
  
  <!-- Leyenda -->
  <rect x="50" y="650" width="1100" height="120" fill="#161b22" stroke="#30363d" stroke-width="2" rx="8"/>
  <text x="70" y="680" font-family="Arial, sans-serif" font-size="18" fill="#58a6ff" font-weight="bold">Leyenda:</text>
  
  <rect x="70" y="700" width="15" height="15" fill="none" stroke="#3fb950" stroke-width="2"/>
  <text x="95" y="712" font-family="Arial, sans-serif" font-size="14" fill="#c9d1d9">Interface principal</text>
  
  <rect x="270" y="700" width="15" height="15" fill="none" stroke="#79c0ff" stroke-width="2"/>
  <text x="295" y="712" font-family="Arial, sans-serif" font-size="14" fill="#c9d1d9">List (ordenado, duplicados)</text>
  
  <rect x="520" y="700" width="15" height="15" fill="none" stroke="#d29922" stroke-width="2"/>
  <text x="545" y="712" font-family="Arial, sans-serif" font-size="14" fill="#c9d1d9">Set (sin duplicados)</text>
  
  <rect x="760" y="700" width="15" height="15" fill="none" stroke="#f85149" stroke-width="2"/>
  <text x="785" y="712" font-family="Arial, sans-serif" font-size="14" fill="#c9d1d9">Queue (FIFO)</text>
  
  <rect x="940" y="700" width="15" height="15" fill="none" stroke="#d2a8ff" stroke-width="2"/>
  <text x="965" y="712" font-family="Arial, sans-serif" font-size="14" fill="#c9d1d9">Map (clave-valor)</text>
  
  <line x1="70" y1="735" x2="85" y2="735" stroke="#30363d" stroke-width="2" marker-end="url(#arrowhead)"/>
  <text x="95" y="742" font-family="Arial, sans-serif" font-size="14" fill="#c9d1d9">Herencia (extends/implements)</text>
  
  <line x1="350" y1="735" x2="365" y2="735" stroke="#30363d" stroke-width="1" stroke-dasharray="5,5"/>
  <text x="375" y="742" font-family="Arial, sans-serif" font-size="14" fill="#c9d1d9">Implementación concreta</text>
  
  <!-- Definir marcador de flecha -->
  <defs>
    <marker id="arrowhead" markerWidth="10" markerHeight="10" refX="9" refY="3" orient="auto">
      <polygon points="0 0, 10 3, 0 6" fill="#30363d"/>
    </marker>
  </defs>
</svg>
